<?xml version="1.0" encoding="UTF-8" standalone="no"?> <!-- Created with Vectornator for iOS (http://vectornator.io/) --><!DOCTYPE svg PUBLIC "-//W3C//DTD SVG 1.1//EN" "http://www.w3.org/Graphics/SVG/1.1/DTD/svg11.dtd">
<svg height="100%" style="fill-rule:evenodd;clip-rule:evenodd;stroke-linecap:round;stroke-linejoin:round;" xmlns:xlink="http://www.w3.org/1999/xlink" xmlns="http://www.w3.org/2000/svg" xml:space="preserve" width="100%" xmlns:vectornator="http://vectornator.io" version="1.1" viewBox="0 0 1024 1024">
<metadata>
<vectornator:setting key="DimensionsVisible" value="1"/>
<vectornator:setting key="PencilOnly" value="0"/>
<vectornator:setting key="SnapToPoints" value="0"/>
<vectornator:setting key="OutlineMode" value="0"/>
<vectornator:setting key="CMYKEnabledKey" value="0"/>
<vectornator:setting key="RulersVisible" value="1"/>
<vectornator:setting key="SnapToEdges" value="1"/>
<vectornator:setting key="GuidesVisible" value="1"/>
<vectornator:setting key="DisplayWhiteBackground" value="0"/>
<vectornator:setting key="doHistoryDisabled" value="0"/>
<vectornator:setting key="SnapToGuides" value="1"/>
<vectornator:setting key="TimeLapseWatermarkDisabled" value="0"/>
<vectornator:setting key="Units" value="Pixels"/>
<vectornator:setting key="DynamicGuides" value="0"/>
<vectornator:setting key="IsolateActiveLayer" value="0"/>
<vectornator:setting key="SnapToGrid" value="0"/>
</metadata>
<defs/>
<g id="Background" vectornator:layerName="Background" visibility="hidden">
<path stroke="#000000" stroke-width="5" d="M-27.0044-357.683L993.728-357.683C996.172-357.683+998.153-355.736+998.153-353.334L998.153+668.341C998.153+670.744+996.172+672.691+993.728+672.691L-27.0044+672.691C-29.448+672.691-31.4289+670.744-31.4289+668.341L-31.4289-353.334C-31.4289-355.736-29.448-357.683-27.0044-357.683Z" fill="#fa0101" stroke-linecap="butt" opacity="1" stroke-linejoin="miter"/>
</g>
<g id="Layer 1 Copy" vectornator:layerName="Layer 1 Copy">
<path stroke="#000000" stroke-width="5" d="M344.51+277.678L370.716+320.557L380.321+320.557L507.244+320.557L516.756+320.557L643.679+320.557L653.191+320.557L679.49+277.678L653.191+277.763L643.679+277.763L516.756+277.763L507.244+277.763L380.321+277.763L370.716+277.763L344.51+277.678Z" fill="#000000" stroke-linecap="butt" opacity="1" stroke-linejoin="miter"/>
<path stroke="#000000" stroke-width="5" d="M362.234+12.8473L362.078+15.1611C361.948+16.8167+361.92+20.1608+361.953+26.1046C361.957+26.81+361.986+35.5405+361.953+36.7354L361.891+39.2993L662.109+39.2993L662.016+36.7354C661.982+35.5691+662.001+33.9129+662.016+28.8873C662.019+27.6277+662.014+26.8941+662.016+26.1046C662.027+20.1926+661.991+16.8161+661.859+15.1611L661.672+12.8786L362.234+12.8473Z" fill="#000000" stroke-linecap="butt" opacity="1" stroke-linejoin="miter"/>
<path stroke="#000000" stroke-width="5" d="M361.875+59.2523L361.922+60.5499L361.969+61.8474C363.829+113.355+379.995+159.826+405.296+194.158C430.598+228.49+459.035+250.685+497.438+253.64L498.781+253.749L500.125+253.859L500.125+163.247L500.125+72.6346L501.016+72.6346L522.906+72.6346L522.906+163.247L522.906+253.859L524.25+253.749L525.594+253.64C564.059+250.771+593.522+228.604+618.818+194.26C644.113+159.915+660.24+113.394+662.031+61.8162L662.078+60.5342L662.125+59.2523L512+59.2523L361.875+59.2523Z" fill="#000000" stroke-linecap="butt" opacity="1" stroke-linejoin="miter"/>
<path stroke="#000000" stroke-width="5" d="M500.662+336.401L523.338+336.401L523.338+570.283L500.662+570.283L500.662+336.401Z" fill="#000000" stroke-linecap="butt" opacity="1" stroke-linejoin="miter"/>
</g>
<g id="Layer 1 Copy copy" vectornator:layerName="Layer 1 Copy copy" visibility="hidden">
<path stroke="#000000" stroke-width="15" d="M344.51+289.996L370.716+332.827L380.321+332.827L507.244+332.827L516.756+332.827L643.679+332.827L653.191+332.827L679.49+289.996L653.191+290.08L643.679+290.08L516.756+290.08L507.244+290.08L380.321+290.08L370.716+290.08L344.51+289.996Z" fill="#000000" stroke-linecap="butt" fill-opacity="0" opacity="1" stroke-linejoin="miter"/>
<path stroke="#000000" stroke-width="15" d="M362.234+20.4558L362.078+22.767C361.948+24.4209+361.92+27.7613+361.953+33.6985C361.957+34.4032+361.986+43.1242+361.953+44.3177L361.891+46.8788L662.109+46.8788L662.016+44.3177C661.982+43.1528+662.001+41.4984+662.016+36.4783C662.019+35.22+662.014+34.4873+662.016+33.6985C662.027+27.7931+661.991+24.4203+661.859+22.767L661.672+20.487L362.234+20.4558Z" fill="#000000" stroke-linecap="butt" fill-opacity="0" opacity="1" stroke-linejoin="miter"/>
<path stroke="#000000" stroke-width="15" d="M361.875+70.8101L361.922+72.1062L361.969+73.4024C363.829+124.854+379.995+171.274+405.296+205.569C430.598+239.864+460.035+262.033+498.438+264.985L499.781+265.095L501.125+265.204L501.125+174.691L501.125+91.1778L507.016+91.1778L522.906+91.1778L522.906+174.691L522.906+265.204L524.25+265.095L525.594+264.985C564.059+262.119+593.522+239.977+618.818+205.67C644.113+171.363+660.24+124.893+662.031+73.3712L662.078+72.0906L662.125+70.8101L512+70.8101L361.875+70.8101Z" fill="#000000" stroke-linecap="butt" fill-opacity="0" opacity="1" stroke-linejoin="miter"/>
<path stroke="#000000" stroke-width="15" d="M495.34+352.656L528.66+352.656L528.66+586.283L495.34+586.283L495.34+352.656Z" fill="#000000" stroke-linecap="butt" fill-opacity="0" opacity="1" stroke-linejoin="miter"/>
</g>
<g id="Layer 2" vectornator:layerName="Layer 2" visibility="hidden">
<path stroke="#000000" stroke-width="10" d="M535.705+579.102C504.181+579.7+504.181+579.7+472.658+580.298C469.379+605.59+475.916+634.29+462.821+656.174C449.258+678.838+421.376+689.082+399.085+703.249C366.75+723.798+328.567+735.052+290.903+742.067C254.13+748.916+206.852+704.488+192.119+755.513C204.022+751.938+215.478+743.404+227.83+744.789C238.183+745.95+245.038+756.539+253.642+762.414C231.267+775.893+210.391+792.251+186.517+802.852C174.21+808.316+159.641+806.037+146.736+809.883C134.975+813.388+124.28+819.791+113.052+824.745C114.05+826.908+114.05+826.908+115.048+829.07C136.001+826.352+136.001+826.352+156.955+823.633C153.309+832.393+152.631+843.11+146.017+849.914C134.508+861.752+118.512+868.186+104.76+877.322C111.063+885.025+124.698+878.969+134.611+878.07C134.611+889.101+129.28+899.744+123.93+909.39C125.536+910.886+125.536+910.886+127.142+912.383C132.08+908.549+139.267+906.527+141.955+900.883C146.783+890.742+144.827+878.462+148.369+867.804C151.174+859.365+155.582+851.401+160.793+844.195C168.142+834.032+175.484+823.226+185.782+816.067C198.997+806.881+215.126+802.84+229.798+796.227C229.528+805.945+231.514+815.995+228.986+825.383C224.833+840.805+216.389+854.737+210.09+869.414C219.614+871.694+226.334+858.268+233.236+851.32C242.347+859.573+242.347+859.573+251.459+867.826C249.27+847.875+244.053+828.025+244.892+807.971C245.274+798.844+248.444+788.84+255.031+782.51C266.637+771.355+281.489+763.33+296.73+758.15C315.631+751.725+336.109+751.555+355.798+748.258C346.778+758.997+335.574+768.231+328.736+780.477C317.247+801.049+319.447+830.518+301.4+845.668C289.615+855.56+290.858+864.115+261.036+878.901C245.639+886.535+244.104+884.37+217.955+893.82C204.449+898.701+196.957+914.723+191.986+928.195C193.789+929.5+193.789+929.5+195.593+930.805C207.164+920.333+217.643+908.114+231.236+900.445C232.982+903.97+232.982+903.97+234.729+907.495C239.745+900.83+250.961+894.45+259.201+893.146C252.524+912.396+241.882+930.063+233.361+948.57C226.587+963.282+214.674+975.224+207.781+989.88C204.696+996.438+205.176+1004.14+203.873+1011.27C220.133+992.34+220.133+992.34+236.392+973.414C239.286+981.712+239.286+981.712+242.179+990.01C247.634+989.336+247.634+989.336+253.088+988.662C251.346+975.184+247.72+971.934+248.567+958.37C249.321+946.299+263.697+921.91+268.131+910.659C273.147+897.932+270.056+892.477+279.235+882.335C285.532+875.378+292.895+871.098+301.423+867.183C295.252+879.091+286.863+883.125+283.161+900.576C280.267+914.218+284.637+917.551+289.79+935.772C288.771+916.936+290.451+903.798+295.195+896.505C297.353+893.187+304.252+908.62+308.088+907.644C303.644+896.003+301.096+890.464+308.111+879.508C310.42+884.252+310.42+884.252+312.729+888.996C314.835+888.58+314.835+888.58+316.942+888.164C317.675+875.289+317.122+862.276+319.142+849.539C320.704+839.694+323.227+828.233+331.111+822.133C332.824+840.722+333.929+856.397+330.485+874.745C335.622+871.767+342.282+870.523+345.898+865.812C349.569+861.03+350.238+854.39+350.724+848.38C352.359+828.184+340.296+809.988+346.227+790.614C350.34+777.18+362.827+767.693+373.233+758.254C380.235+751.901+389.547+748.694+397.705+743.914C394.988+761.544+393.766+779.806+383.412+795.412C376.907+805.218+366.822+812.104+358.527+820.451C359.815+821.084+361.076+822.926+362.392+822.352C371.187+818.515+381.015+815.162+387.288+807.902C396.759+796.944+401.045+782.41+407.923+769.664C409.453+788.394+415.626+807.321+412.512+825.853C409.696+842.612+397.994+856.585+390.735+871.95C396.63+870.863+405.071+873.659+408.42+868.688C417.844+854.697+422.888+837.635+425.111+820.914C427.94+799.624+419.233+777.59+423.33+756.508C425.323+746.249+434.804+738.783+442.455+731.664C454.163+720.769+468.08+712.518+480.892+702.945C482.615+718.293+488.294+743.905+480.816+759.933C468.309+786.741+450.327+810.698+436.986+837.102C429.973+850.981+427.431+866.907+419.892+880.508C406.028+905.518+366.823+901.827+340.311+912.542C337.78+913.565+339.759+917.974+339.483+920.689C372.297+915.427+372.297+915.427+405.111+910.164C403.118+922.54+396.311+935.077+399.132+947.29C401.921+959.369+413.501+967.495+420.686+977.597C420.193+956.891+417.941+936.152+419.207+915.479C419.756+906.523+430.411+900.742+438.465+904.764C443.91+907.483+445.355+916.189+448.453+921.428C452.917+928.975+458.369+943.501+458.069+952.263C457.516+968.429+452.333+973.869+448.057+989.468C458.225+982.363+458.225+982.363+468.392+975.258C471.986+980.88+472.931+989.766+479.173+992.124C490.056+996.234+502.439+992.38+514.071+992.508C516.055+986.981+516.055+986.981+518.038+981.455C510.604+981.618+502.741+984.439+495.736+981.945C490.21+979.978+486.174+974.471+483.608+969.197C473.295+948.007+464.577+925.97+457.548+903.477C450.435+880.713+445.226+859.342+458.811+838.293C464.35+829.711+470.909+820.132+480.517+816.664C491.449+812.719+503.746+817.477+515.361+817.883C515.663+832.987+518.718+848.288+516.267+863.195C513.056+882.73+504.483+900.995+498.591+919.894C507.543+916.248+514.529+908.503+520.517+900.914C523.829+915.529+524.938+930.824+530.452+944.758C535.771+958.197+553.508+965.46+564.335+971.666C557.555+955.06+548.382+939.24+543.993+921.848C541.348+911.365+543.717+900.226+543.58+889.414C545.777+888.719+548.338+885.932+550.171+887.329C556.727+892.324+562.235+899.028+565.892+906.414C574.663+924.131+576.374+945.181+587.048+961.82C592.977+971.062+604.871+974.65+613.783+981.065C612.382+975.452+612.588+969.168+609.58+964.227C604.153+955.313+593.834+949.844+589.111+940.539C586.214+934.831+586.591+927.658+587.832+921.378C588.869+916.128+591.277+910.426+595.667+907.367C599.842+904.458+605.727+904.999+610.802+905.371C621.852+906.18+626.477+917.176+632.324+924.54C631.546+914.769+633.877+904.225+629.988+895.227C627.291+888.986+620.762+883.852+614.116+882.413C601.878+879.761+588.817+886.274+576.572+883.656C570.661+882.392+567.135+876.017+563.111+871.508C556.288+863.864+548.047+856.793+544.142+847.32C540.525+838.546+545.079+827.747+541.455+818.977C535.002+803.361+520.184+791.919+514.651+775.954C510.851+764.989+511.639+752.392+514.478+741.139C518.826+723.907+528.671+708.552+535.767+692.258C538.653+694.268+542.79+695.174+544.423+698.289C549.654+708.265+550.61+720.087+555.642+730.164C571.809+762.542+602.648+785.304+628.252+810.879C630.091+809.801+630.091+809.801+631.93+808.723C630.24+802.787+630.507+795.894+626.861+790.914C612.804+771.715+592.146+757.615+579.673+737.352C573.81+727.826+575.611+715.352+573.58+704.352C578.936+706.149+586.177+705.287+589.65+709.744C600.618+723.822+603.786+742.932+614.663+757.08C622.645+767.463+634.968+773.625+645.12+781.898C646.45+780.147+646.45+780.147+647.781+778.397C639.645+766.558+628.082+756.451+623.375+742.879C620.855+735.614+624.442+727.213+627.596+720.2C629.438+716.104+633.668+713.33+637.621+711.198C640.589+709.598+644.722+707.636+647.581+709.424C658.896+716.503+668.045+726.623+677.436+736.107C680.473+739.175+683.363+742.742+684.649+746.862C693.438+775.028+663.58+803.029+662.279+832.506C661.683+846.007+674.052+856.836+679.938+869C681.027+868.086+683.279+867.678+683.205+866.258C682.372+850.468+677.776+834.996+677.313+819.191C677.055+810.364+688.613+796.919+695.111+794.289C699.158+792.651+705.338+793.333+707.961+796.823C717.3+809.249+721.644+824.738+728.486+838.695C730.855+838.348+730.855+838.348+733.224+838.001C731.01+824.962+732.703+810.606+726.58+798.883C718.771+783.934+713.063+768.33+701.875+755.711C708.485+745.27+704.383+738.707+712.844+729.702C718.417+723.77+725.852+718.139+733.961+717.443C741.396+716.804+748.524+721.783+754.601+726.115C763.663+732.574+775.916+738.495+778.635+749.286C786.472+780.398+782.638+813.329+784.64+845.35C796.782+846.058+796.782+846.058+808.923+846.765C804.371+835.804+797.286+825.578+795.267+813.883C794.349+808.565+798.83+803.695+800.611+798.602C806.778+802.154+814.193+804.114+819.111+809.258C828.174+818.737+837.848+828.96+841.64+841.515C846.615+857.986+846.185+875.943+844.422+893.059C843.231+904.623+836.766+915.012+832.938+925.989C837.704+924.297+842.181+921.073+847.236+920.914C850.35+920.816+852.746+923.823+855.502+925.277C855.733+909.607+853.729+892.192+861.642+878.664C872.861+881.668+880.797+892.201+888.396+900.985C890.285+893.871+890.285+893.871+892.173+886.758C904.589+894.998+904.589+894.998+917.005+903.237C915.853+899.119+916.643+893.834+913.548+890.883C899.188+877.191+880.146+868.921+866.205+854.802C860.935+849.463+857.957+841.552+857.452+834.067C857.24+830.912+861.217+827.804+864.371+827.575C873.274+826.928+890.877+837.067+900.864+828.274C911.194+819.178+917.758+804.98+919.24+791.296C908.242+800.303+898.757+815.645+884.548+816.102C887.79+804.678+899.39+797.528+906.011+787.671C906.757+786.561+904.77+785.302+904.15+784.118C892.953+792.246+883.163+802.793+870.56+808.502C863.662+811.627+854.863+812.517+847.868+809.615C835.68+804.557+824.374+796.245+816.149+785.925C804.626+771.467+800.899+751.945+790.002+737.009C782.032+726.084+772.133+715.92+760.299+709.375C750.181+703.779+737.993+702.235+726.436+701.853C710.918+701.341+695.55+708.372+680.111+706.727C672.134+705.876+663.523+696.292+664.582+688.34C646.289+687.614+627.84+688.664+609.705+686.164C589.575+683.389+571.387+671.891+556.598+658.748C550.95+653.728+544.083+648.575+542.166+641.266C536.88+621.115+537.858+599.823+535.705+579.102Z" fill="#000000" stroke-linecap="butt" fill-opacity="0" opacity="1" stroke-linejoin="miter"/>
</g>
<g id="Layer 2 copy" vectornator:layerName="Layer 2 copy">
<path stroke="#000000" stroke-width="1" d="M523.434+583.381C491.911+583.979+530.968+583.7+499.444+584.298C496.165+609.59+498.727+629.296+485.632+651.18C472.069+673.844+421.376+693.082+399.085+707.249C366.75+727.798+328.567+739.052+290.903+746.067C254.13+752.916+206.852+708.488+192.119+759.513C204.022+755.938+215.478+747.404+227.83+748.789C238.183+749.95+245.038+760.539+253.642+766.414C231.267+779.893+210.391+796.251+186.517+806.852C174.21+812.316+159.641+810.037+146.736+813.883C134.975+817.388+124.28+823.791+113.052+828.745C114.05+830.908+114.05+830.908+115.048+833.07C136.001+830.352+136.001+830.352+156.955+827.633C153.309+836.393+152.631+847.11+146.017+853.914C134.508+865.752+118.512+872.186+104.76+881.322C111.063+889.025+124.698+882.969+134.611+882.07C134.611+893.101+129.28+903.744+123.93+913.39C125.536+914.886+125.536+914.886+127.142+916.383C132.08+912.549+139.267+910.527+141.955+904.883C146.783+894.742+144.827+882.462+148.369+871.804C151.174+863.365+155.582+855.401+160.793+848.195C168.142+838.032+175.484+827.226+185.782+820.067C198.997+810.881+215.126+806.84+229.798+800.227C229.528+809.945+231.514+819.995+228.986+829.383C224.833+844.805+216.389+858.737+210.09+873.414C219.614+875.694+226.334+862.268+233.236+855.32C242.347+863.573+242.347+863.573+251.459+871.826C249.27+851.875+244.053+832.025+244.892+811.971C245.274+802.844+248.444+792.84+255.031+786.51C266.637+775.355+281.489+767.33+296.73+762.15C315.631+755.725+336.109+755.555+355.798+752.258C346.778+762.997+335.574+772.231+328.736+784.477C317.247+805.049+319.447+834.518+301.4+849.668C289.615+859.56+290.858+868.115+261.036+882.901C245.639+890.535+244.104+888.37+217.955+897.82C204.449+902.701+196.957+918.723+191.986+932.195C193.789+933.5+193.789+933.5+195.593+934.805C207.164+924.333+217.643+912.114+231.236+904.445C232.982+907.97+232.982+907.97+234.729+911.495C239.745+904.83+250.961+898.45+259.201+897.146C252.524+916.396+241.882+934.063+233.361+952.57C226.587+967.282+214.674+979.224+207.781+993.88C204.696+1000.44+205.176+1008.14+203.873+1015.27C220.133+996.34+220.133+996.34+236.392+977.414C239.286+985.712+239.286+985.712+242.179+994.01C247.634+993.336+247.634+993.336+253.088+992.662C251.346+979.184+247.72+975.934+248.567+962.37C249.321+950.299+263.697+925.91+268.131+914.659C273.147+901.932+270.056+896.477+279.235+886.335C285.532+879.378+292.895+875.098+301.423+871.183C295.252+883.091+286.863+887.125+283.161+904.576C280.267+918.218+284.637+921.551+289.79+939.772C288.771+920.936+290.451+907.798+295.195+900.505C297.353+897.187+304.252+912.62+308.088+911.644C303.644+900.003+301.096+894.464+308.111+883.508C310.42+888.252+310.42+888.252+312.729+892.996C314.835+892.58+314.835+892.58+316.942+892.164C317.675+879.289+317.122+866.276+319.142+853.539C320.704+843.694+323.227+832.233+331.111+826.133C332.824+844.722+333.929+860.397+330.485+878.745C335.622+875.767+342.282+874.523+345.898+869.812C349.569+865.03+350.238+858.39+350.724+852.38C352.359+832.184+340.296+813.988+346.227+794.614C350.34+781.18+362.827+771.693+373.233+762.254C380.235+755.901+389.547+752.694+397.705+747.914C394.988+765.544+393.766+783.806+383.412+799.412C376.907+809.218+366.822+816.104+358.527+824.451C359.815+825.084+361.076+826.926+362.392+826.352C371.187+822.515+381.015+819.162+387.288+811.902C396.759+800.944+401.045+786.41+407.923+773.664C409.453+792.394+415.626+811.321+412.512+829.853C409.696+846.612+397.994+860.585+390.735+875.95C396.63+874.863+405.071+877.659+408.42+872.688C417.844+858.697+422.888+841.635+425.111+824.914C427.94+803.624+419.233+781.59+423.33+760.508C425.323+750.249+434.804+742.783+442.455+735.664C454.163+724.769+468.08+716.518+480.892+706.945C482.615+722.293+488.294+747.905+480.816+763.933C468.309+790.741+450.327+814.698+436.986+841.102C429.973+854.981+427.431+870.907+419.892+884.508C406.028+909.518+366.823+905.827+340.311+916.542C337.78+917.565+339.759+921.974+339.483+924.689C372.297+919.427+372.297+919.427+405.111+914.164C403.118+926.54+396.311+939.077+399.132+951.29C401.921+963.369+413.501+971.495+420.686+981.597C420.193+960.891+417.941+940.152+419.207+919.479C419.756+910.523+430.411+904.742+438.465+908.764C443.91+911.483+445.355+920.189+448.453+925.428C452.917+932.975+458.369+947.501+458.069+956.263C457.516+972.429+452.333+977.869+448.057+993.468C458.225+986.363+458.225+986.363+468.392+979.258C471.986+984.88+472.931+993.766+479.173+996.124C490.056+1000.23+502.439+996.38+514.071+996.508C516.055+990.981+516.055+990.981+518.038+985.455C510.604+985.618+502.741+988.439+495.736+985.945C490.21+983.978+486.174+978.471+483.608+973.197C473.295+952.007+464.577+929.97+457.548+907.477C450.435+884.713+445.226+863.342+458.811+842.293C464.35+833.711+470.909+824.132+480.517+820.664C491.449+816.719+503.746+821.477+515.361+821.883C515.663+836.987+518.718+852.288+516.267+867.195C513.056+886.73+504.483+904.995+498.591+923.894C507.543+920.248+514.529+912.503+520.517+904.914C523.829+919.529+524.938+934.824+530.452+948.758C535.771+962.197+553.508+969.46+564.335+975.666C557.555+959.06+548.382+943.24+543.993+925.848C541.348+915.365+543.717+904.226+543.58+893.414C545.777+892.719+548.338+889.932+550.171+891.329C556.727+896.324+562.235+903.028+565.892+910.414C574.663+928.131+576.374+949.181+587.048+965.82C592.977+975.062+604.871+978.65+613.783+985.065C612.382+979.452+612.588+973.168+609.58+968.227C604.153+959.313+593.834+953.844+589.111+944.539C586.214+938.831+586.591+931.658+587.832+925.378C588.869+920.128+591.277+914.426+595.667+911.367C599.842+908.458+605.727+908.999+610.802+909.371C621.852+910.18+626.477+921.176+632.324+928.54C631.546+918.769+633.877+908.225+629.988+899.227C627.291+892.986+620.762+887.852+614.116+886.413C601.878+883.761+588.817+890.274+576.572+887.656C570.661+886.392+567.135+880.017+563.111+875.508C556.288+867.864+548.047+860.793+544.142+851.32C540.525+842.546+545.079+831.747+541.455+822.977C535.002+807.361+520.184+795.919+514.651+779.954C510.851+768.989+511.639+756.392+514.478+745.139C518.826+727.907+528.671+712.552+535.767+696.258C538.653+698.268+542.79+699.174+544.423+702.289C549.654+712.265+550.61+724.087+555.642+734.164C571.809+766.542+602.648+789.304+628.252+814.879C630.091+813.801+630.091+813.801+631.93+812.723C630.24+806.787+630.507+799.894+626.861+794.914C612.804+775.715+592.146+761.615+579.673+741.352C573.81+731.826+575.611+719.352+573.58+708.352C578.936+710.149+586.177+709.287+589.65+713.744C600.618+727.822+603.786+746.932+614.663+761.08C622.645+771.463+634.968+777.625+645.12+785.898C646.45+784.147+646.45+784.147+647.781+782.397C639.645+770.558+628.082+760.451+623.375+746.879C620.855+739.614+624.442+731.213+627.596+724.2C629.438+720.104+633.668+717.33+637.621+715.198C640.589+713.598+644.722+711.636+647.581+713.424C658.896+720.503+668.045+730.623+677.436+740.107C680.473+743.175+683.363+746.742+684.649+750.862C693.438+779.028+663.58+807.029+662.279+836.506C661.683+850.007+674.052+860.836+679.938+873C681.027+872.086+683.279+871.678+683.205+870.258C682.372+854.468+677.776+838.996+677.313+823.191C677.055+814.364+688.613+800.919+695.111+798.289C699.158+796.651+705.338+797.333+707.961+800.823C717.3+813.249+721.644+828.738+728.486+842.695C730.855+842.348+730.855+842.348+733.224+842.001C731.01+828.962+732.703+814.606+726.58+802.883C718.771+787.934+713.063+772.33+701.875+759.711C708.485+749.27+704.383+742.707+712.844+733.702C718.417+727.77+725.852+722.139+733.961+721.443C741.396+720.804+748.524+725.783+754.601+730.115C763.663+736.574+775.916+742.495+778.635+753.286C786.472+784.398+782.638+817.329+784.64+849.35C796.782+850.058+796.782+850.058+808.923+850.765C804.371+839.804+797.286+829.578+795.267+817.883C794.349+812.565+798.83+807.695+800.611+802.602C806.778+806.154+814.193+808.114+819.111+813.258C828.174+822.737+837.848+832.96+841.64+845.515C846.615+861.986+846.185+879.943+844.422+897.059C843.231+908.623+836.766+919.012+832.938+929.989C837.704+928.297+842.181+925.073+847.236+924.914C850.35+924.816+852.746+927.823+855.502+929.277C855.733+913.607+853.729+896.192+861.642+882.664C872.861+885.668+880.797+896.201+888.396+904.985C890.285+897.871+890.285+897.871+892.173+890.758C904.589+898.998+904.589+898.998+917.005+907.237C915.853+903.119+916.643+897.834+913.548+894.883C899.188+881.191+880.146+872.921+866.205+858.802C860.935+853.463+857.957+845.552+857.452+838.067C857.24+834.912+861.217+831.804+864.371+831.575C873.274+830.928+890.877+841.067+900.864+832.274C911.194+823.178+917.758+808.98+919.24+795.296C908.242+804.303+898.757+819.645+884.548+820.102C887.79+808.678+899.39+801.528+906.011+791.671C906.757+790.561+904.77+789.302+904.15+788.118C892.953+796.246+883.163+806.793+870.56+812.502C863.662+815.627+854.863+816.517+847.868+813.615C835.68+808.557+824.374+800.245+816.149+789.925C804.626+775.467+800.899+755.945+790.002+741.009C782.032+730.084+772.133+719.92+760.299+713.375C750.181+707.779+737.993+706.235+726.436+705.853C710.918+705.341+695.55+712.372+680.111+710.727C672.134+709.876+663.523+700.292+664.582+692.34C646.289+691.614+627.84+692.664+609.705+690.164C589.575+687.389+568.127+673.685+553.338+660.543C547.689+655.523+531.813+652.854+529.895+645.545C524.609+625.394+525.588+604.102+523.434+583.381ZM393.312+793.438C390.743+801.558+388.326+808.566+381.812+814.281C386.576+807.777+390.618+801.073+393.312+793.438Z" fill="#000000" stroke-linecap="butt" opacity="1" stroke-linejoin="miter"/>
</g>
</svg>
