<?xml version="1.0" encoding="UTF-8" standalone="no"?> <!-- Created with Vectornator for iOS (http://vectornator.io/) --><!DOCTYPE svg PUBLIC "-//W3C//DTD SVG 1.1//EN" "http://www.w3.org/Graphics/SVG/1.1/DTD/svg11.dtd">
<svg height="100%" style="fill-rule:evenodd;clip-rule:evenodd;stroke-linecap:round;stroke-linejoin:round;" xmlns:xlink="http://www.w3.org/1999/xlink" xmlns="http://www.w3.org/2000/svg" xml:space="preserve" width="100%" xmlns:vectornator="http://vectornator.io" version="1.1" viewBox="0 0 1024 1024">
<metadata>
<vectornator:setting key="DimensionsVisible" value="1"/>
<vectornator:setting key="PencilOnly" value="0"/>
<vectornator:setting key="SnapToPoints" value="0"/>
<vectornator:setting key="OutlineMode" value="0"/>
<vectornator:setting key="CMYKEnabledKey" value="0"/>
<vectornator:setting key="RulersVisible" value="1"/>
<vectornator:setting key="SnapToEdges" value="1"/>
<vectornator:setting key="GuidesVisible" value="1"/>
<vectornator:setting key="DisplayWhiteBackground" value="0"/>
<vectornator:setting key="doHistoryDisabled" value="0"/>
<vectornator:setting key="SnapToGuides" value="1"/>
<vectornator:setting key="TimeLapseWatermarkDisabled" value="0"/>
<vectornator:setting key="Units" value="Pixels"/>
<vectornator:setting key="DynamicGuides" value="0"/>
<vectornator:setting key="IsolateActiveLayer" value="0"/>
<vectornator:setting key="SnapToGrid" value="0"/>
</metadata>
<defs/>
<g id="Background" vectornator:layerName="Background" visibility="hidden">
<path stroke="#000000" stroke-width="5" d="M-27.0044-357.683L993.728-357.683C996.172-357.683+998.153-355.736+998.153-353.334L998.153+668.341C998.153+670.744+996.172+672.691+993.728+672.691L-27.0044+672.691C-29.448+672.691-31.4289+670.744-31.4289+668.341L-31.4289-353.334C-31.4289-355.736-29.448-357.683-27.0044-357.683Z" fill="#fa0101" stroke-linecap="butt" opacity="1" stroke-linejoin="miter"/>
</g>
<g id="Layer 1 Copy" vectornator:layerName="Layer 1 Copy" visibility="hidden">
<path stroke="#000000" stroke-width="5" d="M344.51+277.678L370.716+320.557L380.321+320.557L507.244+320.557L516.756+320.557L643.679+320.557L653.191+320.557L679.49+277.678L653.191+277.763L643.679+277.763L516.756+277.763L507.244+277.763L380.321+277.763L370.716+277.763L344.51+277.678Z" fill="#000000" stroke-linecap="butt" opacity="1" stroke-linejoin="miter"/>
<path stroke="#000000" stroke-width="5" d="M362.234+12.8473L362.078+15.1611C361.948+16.8167+361.92+20.1608+361.953+26.1046C361.957+26.81+361.986+35.5405+361.953+36.7354L361.891+39.2993L662.109+39.2993L662.016+36.7354C661.982+35.5691+662.001+33.9129+662.016+28.8873C662.019+27.6277+662.014+26.8941+662.016+26.1046C662.027+20.1926+661.991+16.8161+661.859+15.1611L661.672+12.8786L362.234+12.8473Z" fill="#000000" stroke-linecap="butt" opacity="1" stroke-linejoin="miter"/>
<path stroke="#000000" stroke-width="5" d="M361.875+59.2523L361.922+60.5499L361.969+61.8474C363.829+113.355+379.995+159.826+405.296+194.158C430.598+228.49+459.035+250.685+497.438+253.64L498.781+253.749L500.125+253.859L500.125+163.247L500.125+72.6346L501.016+72.6346L522.906+72.6346L522.906+163.247L522.906+253.859L524.25+253.749L525.594+253.64C564.059+250.771+593.522+228.604+618.818+194.26C644.113+159.915+660.24+113.394+662.031+61.8162L662.078+60.5342L662.125+59.2523L512+59.2523L361.875+59.2523Z" fill="#000000" stroke-linecap="butt" opacity="1" stroke-linejoin="miter"/>
<path stroke="#000000" stroke-width="5" d="M500.662+336.401L523.338+336.401L523.338+570.283L500.662+570.283L500.662+336.401Z" fill="#000000" stroke-linecap="butt" opacity="1" stroke-linejoin="miter"/>
</g>
<g id="Layer 1 Copy copy" vectornator:layerName="Layer 1 Copy copy">
<path stroke="#000000" stroke-width="10" d="M344.51+282.996L370.716+325.827L380.321+325.827L507.244+325.827L516.756+325.827L643.679+325.827L653.191+325.827L679.49+282.996L653.191+283.08L643.679+283.08L516.756+283.08L507.244+283.08L380.321+283.08L370.716+283.08L344.51+282.996Z" fill="#000000" stroke-linecap="butt" fill-opacity="0" opacity="1" stroke-linejoin="miter"/>
<path stroke="#000000" stroke-width="10" d="M362.234+13.4558L362.078+15.767C361.948+17.4209+361.92+20.7613+361.953+26.6985C361.957+27.4032+361.986+36.1242+361.953+37.3177L361.891+39.8788L662.109+39.8788L662.016+37.3177C661.982+36.1528+662.001+34.4984+662.016+29.4783C662.019+28.22+662.014+27.4873+662.016+26.6985C662.027+20.7931+661.991+17.4203+661.859+15.767L661.672+13.487L362.234+13.4558Z" fill="#000000" stroke-linecap="butt" fill-opacity="0" opacity="1" stroke-linejoin="miter"/>
<path stroke="#000000" stroke-width="10" d="M361.875+63.8101L361.922+65.1062L361.969+66.4024C363.829+117.854+379.995+164.274+405.296+198.569C430.598+232.864+460.035+255.033+498.438+257.985L499.781+258.095L501.125+258.204L501.125+167.691L501.125+84.1778L507.016+84.1778L522.906+84.1778L522.906+167.691L522.906+258.204L524.25+258.095L525.594+257.985C564.059+255.119+593.522+232.977+618.818+198.67C644.113+164.363+660.24+117.893+662.031+66.3712L662.078+65.0906L662.125+63.8101L512+63.8101L361.875+63.8101Z" fill="#000000" stroke-linecap="butt" fill-opacity="0" opacity="1" stroke-linejoin="miter"/>
<path stroke="#000000" stroke-width="10" d="M493.766+345.656L530.234+345.656L530.234+549.682L493.766+549.682L493.766+345.656Z" fill="#000000" stroke-linecap="butt" fill-opacity="0" opacity="1" stroke-linejoin="miter"/>
</g>
<g id="Layer 2" vectornator:layerName="Layer 2">
<path stroke="#000000" stroke-width="10" d="M531.196+573.461L493.372+573.247C493.372+573.247+494.916+627.29+481.821+649.174C468.258+671.838+421.376+682.082+399.085+696.249C366.75+716.798+328.567+728.052+290.903+735.067C254.13+741.916+206.852+697.488+192.119+748.513C204.022+744.938+215.478+736.404+227.83+737.789C238.183+738.95+245.038+749.539+253.642+755.414C231.267+768.893+210.391+785.251+186.517+795.852C174.21+801.316+159.641+799.037+146.736+802.883C134.975+806.388+124.28+812.791+113.052+817.745C114.05+819.908+114.05+819.908+115.048+822.07C136.001+819.352+136.001+819.352+156.955+816.633C153.309+825.393+152.631+836.11+146.017+842.914C134.508+854.752+118.512+861.186+104.76+870.322C111.063+878.025+124.698+871.969+134.611+871.07C134.611+882.101+129.28+892.744+123.93+902.39C125.536+903.886+125.536+903.886+127.142+905.383C132.08+901.549+139.267+899.527+141.955+893.883C146.783+883.742+144.827+871.462+148.369+860.804C151.174+852.365+155.582+844.401+160.793+837.195C168.142+827.032+175.484+816.226+185.782+809.067C198.997+799.881+215.126+795.84+229.798+789.227C229.528+798.945+231.514+808.995+228.986+818.383C224.833+833.805+216.389+847.737+210.09+862.414C219.614+864.694+226.334+851.268+233.236+844.32C242.347+852.573+242.347+852.573+251.459+860.826C249.27+840.875+244.053+821.025+244.892+800.971C245.274+791.844+248.444+781.84+255.031+775.51C266.637+764.355+281.489+756.33+296.73+751.15C315.631+744.725+336.109+744.555+355.798+741.258C346.778+751.997+335.574+761.231+328.736+773.477C317.247+794.049+319.447+823.518+301.4+838.668C289.615+848.56+290.858+857.115+261.036+871.901C245.639+879.535+244.104+877.37+217.955+886.82C204.449+891.701+196.957+907.723+191.986+921.195C193.789+922.5+193.789+922.5+195.593+923.805C207.164+913.333+217.643+901.114+231.236+893.445C232.982+896.97+232.982+896.97+234.729+900.495C239.745+893.83+250.961+887.45+259.201+886.146C252.524+905.396+241.882+923.063+233.361+941.57C226.587+956.282+214.674+968.224+207.781+982.88C204.696+989.438+205.176+997.138+203.873+1004.27C220.133+985.34+220.133+985.34+236.392+966.414C239.286+974.712+239.286+974.712+242.179+983.01C247.634+982.336+247.634+982.336+253.088+981.662C251.346+968.184+247.72+964.934+248.567+951.37C249.321+939.299+263.697+914.91+268.131+903.659C273.147+890.932+270.056+885.477+279.235+875.335C285.532+868.378+292.895+864.098+301.423+860.183C295.252+872.091+286.863+876.125+283.161+893.576C280.267+907.218+284.637+910.551+289.79+928.772C288.771+909.936+290.451+896.798+295.195+889.505C297.353+886.187+304.252+901.62+308.088+900.644C303.644+889.003+301.096+883.464+308.111+872.508C310.42+877.252+310.42+877.252+312.729+881.996C314.835+881.58+314.835+881.58+316.942+881.164C317.675+868.289+317.122+855.276+319.142+842.539C320.704+832.694+323.227+821.233+331.111+815.133C332.824+833.722+333.929+849.397+330.485+867.745C335.622+864.767+342.282+863.523+345.898+858.812C349.569+854.03+350.238+847.39+350.724+841.38C352.359+821.184+340.296+802.988+346.227+783.614C350.34+770.18+362.827+760.693+373.233+751.254C380.235+744.901+389.547+741.694+397.705+736.914C394.988+754.544+393.766+772.806+383.412+788.412C376.907+798.218+366.822+805.104+358.527+813.451C359.815+814.084+361.076+815.926+362.392+815.352C371.187+811.515+381.015+808.162+387.288+800.902C396.759+789.944+401.045+775.41+407.923+762.664C409.453+781.394+415.626+800.321+412.512+818.853C409.696+835.612+397.994+849.585+390.735+864.95C396.63+863.863+405.071+866.659+408.42+861.688C417.844+847.697+422.888+830.635+425.111+813.914C427.94+792.624+419.233+770.59+423.33+749.508C425.323+739.249+434.804+731.783+442.455+724.664C454.163+713.769+468.08+705.518+480.892+695.945C482.615+711.293+488.294+736.905+480.816+752.933C468.309+779.741+450.327+803.698+436.986+830.102C429.973+843.981+427.431+859.907+419.892+873.508C406.028+898.518+366.823+894.827+340.311+905.542C337.78+906.565+339.759+910.974+339.483+913.689C372.297+908.427+372.297+908.427+405.111+903.164C403.118+915.54+396.311+928.077+399.132+940.29C401.921+952.369+413.501+960.495+420.686+970.597C420.193+949.891+417.941+929.152+419.207+908.479C419.756+899.523+430.411+893.742+438.465+897.764C443.91+900.483+445.355+909.189+448.453+914.428C452.917+921.975+458.369+936.501+458.069+945.263C457.516+961.429+452.333+966.869+448.057+982.468C458.225+975.363+458.225+975.363+468.392+968.258C471.986+973.88+472.931+982.766+479.173+985.124C490.056+989.234+502.439+985.38+514.071+985.508C516.055+979.981+516.055+979.981+518.038+974.455C510.604+974.618+502.741+977.439+495.736+974.945C490.21+972.978+486.174+967.471+483.608+962.197C473.295+941.007+464.577+918.97+457.548+896.477C450.435+873.713+445.226+852.342+458.811+831.293C464.35+822.711+470.909+813.132+480.517+809.664C491.449+805.719+503.746+810.477+515.361+810.883C515.663+825.987+518.718+841.288+516.267+856.195C513.056+875.73+504.483+893.995+498.591+912.894C507.543+909.248+514.529+901.503+520.517+893.914C523.829+908.529+524.938+923.824+530.452+937.758C535.771+951.197+553.508+958.46+564.335+964.666C557.555+948.06+548.382+932.24+543.993+914.848C541.348+904.365+543.717+893.226+543.58+882.414C545.777+881.719+548.338+878.932+550.171+880.329C556.727+885.324+562.235+892.028+565.892+899.414C574.663+917.131+576.374+938.181+587.048+954.82C592.977+964.062+604.871+967.65+613.783+974.065C612.382+968.452+612.588+962.168+609.58+957.227C604.153+948.313+593.834+942.844+589.111+933.539C586.214+927.831+586.591+920.658+587.832+914.378C588.869+909.128+591.277+903.426+595.667+900.367C599.842+897.458+605.727+897.999+610.802+898.371C621.852+899.18+626.477+910.176+632.324+917.54C631.546+907.769+633.877+897.225+629.988+888.227C627.291+881.986+620.762+876.852+614.116+875.413C601.878+872.761+588.817+879.274+576.572+876.656C570.661+875.392+567.135+869.017+563.111+864.508C556.288+856.864+548.047+849.793+544.142+840.32C540.525+831.546+545.079+820.747+541.455+811.977C535.002+796.361+520.184+784.919+514.651+768.954C510.851+757.989+511.639+745.392+514.478+734.139C518.826+716.907+528.671+701.552+535.767+685.258C538.653+687.268+542.79+688.174+544.423+691.289C549.654+701.265+550.61+713.087+555.642+723.164C571.809+755.542+602.648+778.304+628.252+803.879C630.091+802.801+630.091+802.801+631.93+801.723C630.24+795.787+630.507+788.894+626.861+783.914C612.804+764.715+592.146+750.615+579.673+730.352C573.81+720.826+575.611+708.352+573.58+697.352C578.936+699.149+586.177+698.287+589.65+702.744C600.618+716.822+603.786+735.932+614.663+750.08C622.645+760.463+634.968+766.625+645.12+774.898C646.45+773.147+646.45+773.147+647.781+771.397C639.645+759.558+628.082+749.451+623.375+735.879C620.855+728.614+624.442+720.213+627.596+713.2C629.438+709.104+633.668+706.33+637.621+704.198C640.589+702.598+644.722+700.636+647.581+702.424C658.896+709.503+668.045+719.623+677.436+729.107C680.473+732.175+683.363+735.742+684.649+739.862C693.438+768.028+663.58+796.029+662.279+825.506C661.683+839.007+674.052+849.836+679.938+862C681.027+861.086+683.279+860.678+683.205+859.258C682.372+843.468+677.776+827.996+677.313+812.191C677.055+803.364+688.613+789.919+695.111+787.289C699.158+785.651+705.338+786.333+707.961+789.823C717.3+802.249+721.644+817.738+728.486+831.695C730.855+831.348+730.855+831.348+733.224+831.001C731.01+817.962+732.703+803.606+726.58+791.883C718.771+776.934+713.063+761.33+701.875+748.711C708.485+738.27+704.383+731.707+712.844+722.702C718.417+716.77+725.852+711.139+733.961+710.443C741.396+709.804+748.524+714.783+754.601+719.115C763.663+725.574+775.916+731.495+778.635+742.286C786.472+773.398+782.638+806.329+784.64+838.35C796.782+839.058+796.782+839.058+808.923+839.765C804.371+828.804+797.286+818.578+795.267+806.883C794.349+801.565+798.83+796.695+800.611+791.602C806.778+795.154+814.193+797.114+819.111+802.258C828.174+811.737+837.848+821.96+841.64+834.515C846.615+850.986+846.185+868.943+844.422+886.059C843.231+897.623+836.766+908.012+832.938+918.989C837.704+917.297+842.181+914.073+847.236+913.914C850.35+913.816+852.746+916.823+855.502+918.277C855.733+902.607+853.729+885.192+861.642+871.664C872.861+874.668+880.797+885.201+888.396+893.985C890.285+886.871+890.285+886.871+892.173+879.758C904.589+887.998+904.589+887.998+917.005+896.237C915.853+892.119+916.643+886.834+913.548+883.883C903.93+874.712+892.212+867.974+881.333+860.282C875.969+856.489+870.809+852.464+866.205+847.802C860.935+842.463+857.957+834.552+857.452+827.067C857.24+823.912+861.217+820.804+864.371+820.575C873.274+819.928+890.877+830.067+900.864+821.274C911.194+812.178+917.758+797.98+919.24+784.296C908.242+793.303+898.757+808.645+884.548+809.102C887.79+797.678+899.39+790.528+906.011+780.671C906.757+779.561+904.77+778.302+904.15+777.118C892.953+785.246+883.163+795.793+870.56+801.502C863.662+804.627+854.863+805.517+847.868+802.615C835.68+797.557+824.374+789.245+816.149+778.925C804.626+764.467+800.899+744.945+790.002+730.009C782.032+719.084+772.133+708.92+760.299+702.375C750.181+696.779+737.993+695.235+726.436+694.853C710.918+694.341+695.55+701.372+680.111+699.727C672.134+698.876+663.523+689.292+664.582+681.34C646.289+680.614+627.84+681.664+609.705+679.164C589.575+676.389+571.387+664.891+556.598+651.748C550.95+646.728+540.083+641.575+538.166+634.266C532.88+614.115+531.196+573.461+531.196+573.461Z" fill="#000000" stroke-linecap="butt" fill-opacity="0" opacity="1" stroke-linejoin="miter"/>
</g>
<g id="Layer 2 copy" vectornator:layerName="Layer 2 copy" visibility="hidden">
<path stroke="#000000" stroke-width="1" d="M523.434+583.381C491.911+583.979+530.968+583.7+499.444+584.298C496.165+609.59+498.727+629.296+485.632+651.18C472.069+673.844+421.376+693.082+399.085+707.249C366.75+727.798+328.567+739.052+290.903+746.067C254.13+752.916+206.852+708.488+192.119+759.513C204.022+755.938+215.478+747.404+227.83+748.789C238.183+749.95+245.038+760.539+253.642+766.414C231.267+779.893+210.391+796.251+186.517+806.852C174.21+812.316+159.641+810.037+146.736+813.883C134.975+817.388+124.28+823.791+113.052+828.745C114.05+830.908+114.05+830.908+115.048+833.07C136.001+830.352+136.001+830.352+156.955+827.633C153.309+836.393+152.631+847.11+146.017+853.914C134.508+865.752+118.512+872.186+104.76+881.322C111.063+889.025+124.698+882.969+134.611+882.07C134.611+893.101+129.28+903.744+123.93+913.39C125.536+914.886+125.536+914.886+127.142+916.383C132.08+912.549+139.267+910.527+141.955+904.883C146.783+894.742+144.827+882.462+148.369+871.804C151.174+863.365+155.582+855.401+160.793+848.195C168.142+838.032+175.484+827.226+185.782+820.067C198.997+810.881+215.126+806.84+229.798+800.227C229.528+809.945+231.514+819.995+228.986+829.383C224.833+844.805+216.389+858.737+210.09+873.414C219.614+875.694+226.334+862.268+233.236+855.32C242.347+863.573+242.347+863.573+251.459+871.826C249.27+851.875+244.053+832.025+244.892+811.971C245.274+802.844+248.444+792.84+255.031+786.51C266.637+775.355+281.489+767.33+296.73+762.15C315.631+755.725+336.109+755.555+355.798+752.258C346.778+762.997+335.574+772.231+328.736+784.477C317.247+805.049+319.447+834.518+301.4+849.668C289.615+859.56+290.858+868.115+261.036+882.901C245.639+890.535+244.104+888.37+217.955+897.82C204.449+902.701+196.957+918.723+191.986+932.195C193.789+933.5+193.789+933.5+195.593+934.805C207.164+924.333+217.643+912.114+231.236+904.445C232.982+907.97+232.982+907.97+234.729+911.495C239.745+904.83+250.961+898.45+259.201+897.146C252.524+916.396+241.882+934.063+233.361+952.57C226.587+967.282+214.674+979.224+207.781+993.88C204.696+1000.44+205.176+1008.14+203.873+1015.27C220.133+996.34+220.133+996.34+236.392+977.414C239.286+985.712+239.286+985.712+242.179+994.01C247.634+993.336+247.634+993.336+253.088+992.662C251.346+979.184+247.72+975.934+248.567+962.37C249.321+950.299+263.697+925.91+268.131+914.659C273.147+901.932+270.056+896.477+279.235+886.335C285.532+879.378+292.895+875.098+301.423+871.183C295.252+883.091+286.863+887.125+283.161+904.576C280.267+918.218+284.637+921.551+289.79+939.772C288.771+920.936+290.451+907.798+295.195+900.505C297.353+897.187+304.252+912.62+308.088+911.644C303.644+900.003+301.096+894.464+308.111+883.508C310.42+888.252+310.42+888.252+312.729+892.996C314.835+892.58+314.835+892.58+316.942+892.164C317.675+879.289+317.122+866.276+319.142+853.539C320.704+843.694+323.227+832.233+331.111+826.133C332.824+844.722+333.929+860.397+330.485+878.745C335.622+875.767+342.282+874.523+345.898+869.812C349.569+865.03+350.238+858.39+350.724+852.38C352.359+832.184+340.296+813.988+346.227+794.614C350.34+781.18+362.827+771.693+373.233+762.254C380.235+755.901+389.547+752.694+397.705+747.914C394.988+765.544+393.766+783.806+383.412+799.412C376.907+809.218+366.822+816.104+358.527+824.451C359.815+825.084+361.076+826.926+362.392+826.352C371.187+822.515+381.015+819.162+387.288+811.902C396.759+800.944+401.045+786.41+407.923+773.664C409.453+792.394+415.626+811.321+412.512+829.853C409.696+846.612+397.994+860.585+390.735+875.95C396.63+874.863+405.071+877.659+408.42+872.688C417.844+858.697+422.888+841.635+425.111+824.914C427.94+803.624+419.233+781.59+423.33+760.508C425.323+750.249+434.804+742.783+442.455+735.664C454.163+724.769+468.08+716.518+480.892+706.945C482.615+722.293+488.294+747.905+480.816+763.933C468.309+790.741+450.327+814.698+436.986+841.102C429.973+854.981+427.431+870.907+419.892+884.508C406.028+909.518+366.823+905.827+340.311+916.542C337.78+917.565+339.759+921.974+339.483+924.689C372.297+919.427+372.297+919.427+405.111+914.164C403.118+926.54+396.311+939.077+399.132+951.29C401.921+963.369+413.501+971.495+420.686+981.597C420.193+960.891+417.941+940.152+419.207+919.479C419.756+910.523+430.411+904.742+438.465+908.764C443.91+911.483+445.355+920.189+448.453+925.428C452.917+932.975+458.369+947.501+458.069+956.263C457.516+972.429+452.333+977.869+448.057+993.468C458.225+986.363+458.225+986.363+468.392+979.258C471.986+984.88+472.931+993.766+479.173+996.124C490.056+1000.23+502.439+996.38+514.071+996.508C516.055+990.981+516.055+990.981+518.038+985.455C510.604+985.618+502.741+988.439+495.736+985.945C490.21+983.978+486.174+978.471+483.608+973.197C473.295+952.007+464.577+929.97+457.548+907.477C450.435+884.713+445.226+863.342+458.811+842.293C464.35+833.711+470.909+824.132+480.517+820.664C491.449+816.719+503.746+821.477+515.361+821.883C515.663+836.987+518.718+852.288+516.267+867.195C513.056+886.73+504.483+904.995+498.591+923.894C507.543+920.248+514.529+912.503+520.517+904.914C523.829+919.529+524.938+934.824+530.452+948.758C535.771+962.197+553.508+969.46+564.335+975.666C557.555+959.06+548.382+943.24+543.993+925.848C541.348+915.365+543.717+904.226+543.58+893.414C545.777+892.719+548.338+889.932+550.171+891.329C556.727+896.324+562.235+903.028+565.892+910.414C574.663+928.131+576.374+949.181+587.048+965.82C592.977+975.062+604.871+978.65+613.783+985.065C612.382+979.452+612.588+973.168+609.58+968.227C604.153+959.313+593.834+953.844+589.111+944.539C586.214+938.831+586.591+931.658+587.832+925.378C588.869+920.128+591.277+914.426+595.667+911.367C599.842+908.458+605.727+908.999+610.802+909.371C621.852+910.18+626.477+921.176+632.324+928.54C631.546+918.769+633.877+908.225+629.988+899.227C627.291+892.986+620.762+887.852+614.116+886.413C601.878+883.761+588.817+890.274+576.572+887.656C570.661+886.392+567.135+880.017+563.111+875.508C556.288+867.864+548.047+860.793+544.142+851.32C540.525+842.546+545.079+831.747+541.455+822.977C535.002+807.361+520.184+795.919+514.651+779.954C510.851+768.989+511.639+756.392+514.478+745.139C518.826+727.907+528.671+712.552+535.767+696.258C538.653+698.268+542.79+699.174+544.423+702.289C549.654+712.265+550.61+724.087+555.642+734.164C571.809+766.542+602.648+789.304+628.252+814.879C630.091+813.801+630.091+813.801+631.93+812.723C630.24+806.787+630.507+799.894+626.861+794.914C612.804+775.715+592.146+761.615+579.673+741.352C573.81+731.826+575.611+719.352+573.58+708.352C578.936+710.149+586.177+709.287+589.65+713.744C600.618+727.822+603.786+746.932+614.663+761.08C622.645+771.463+634.968+777.625+645.12+785.898C646.45+784.147+646.45+784.147+647.781+782.397C639.645+770.558+628.082+760.451+623.375+746.879C620.855+739.614+624.442+731.213+627.596+724.2C629.438+720.104+633.668+717.33+637.621+715.198C640.589+713.598+644.722+711.636+647.581+713.424C658.896+720.503+668.045+730.623+677.436+740.107C680.473+743.175+683.363+746.742+684.649+750.862C693.438+779.028+663.58+807.029+662.279+836.506C661.683+850.007+674.052+860.836+679.938+873C681.027+872.086+683.279+871.678+683.205+870.258C682.372+854.468+677.776+838.996+677.313+823.191C677.055+814.364+688.613+800.919+695.111+798.289C699.158+796.651+705.338+797.333+707.961+800.823C717.3+813.249+721.644+828.738+728.486+842.695C730.855+842.348+730.855+842.348+733.224+842.001C731.01+828.962+732.703+814.606+726.58+802.883C718.771+787.934+713.063+772.33+701.875+759.711C708.485+749.27+704.383+742.707+712.844+733.702C718.417+727.77+725.852+722.139+733.961+721.443C741.396+720.804+748.524+725.783+754.601+730.115C763.663+736.574+775.916+742.495+778.635+753.286C786.472+784.398+782.638+817.329+784.64+849.35C796.782+850.058+796.782+850.058+808.923+850.765C804.371+839.804+797.286+829.578+795.267+817.883C794.349+812.565+798.83+807.695+800.611+802.602C806.778+806.154+814.193+808.114+819.111+813.258C828.174+822.737+837.848+832.96+841.64+845.515C846.615+861.986+846.185+879.943+844.422+897.059C843.231+908.623+836.766+919.012+832.938+929.989C837.704+928.297+842.181+925.073+847.236+924.914C850.35+924.816+852.746+927.823+855.502+929.277C855.733+913.607+853.729+896.192+861.642+882.664C872.861+885.668+880.797+896.201+888.396+904.985C890.285+897.871+890.285+897.871+892.173+890.758C904.589+898.998+904.589+898.998+917.005+907.237C915.853+903.119+916.643+897.834+913.548+894.883C899.188+881.191+880.146+872.921+866.205+858.802C860.935+853.463+857.957+845.552+857.452+838.067C857.24+834.912+861.217+831.804+864.371+831.575C873.274+830.928+890.877+841.067+900.864+832.274C911.194+823.178+917.758+808.98+919.24+795.296C908.242+804.303+898.757+819.645+884.548+820.102C887.79+808.678+899.39+801.528+906.011+791.671C906.757+790.561+904.77+789.302+904.15+788.118C892.953+796.246+883.163+806.793+870.56+812.502C863.662+815.627+854.863+816.517+847.868+813.615C835.68+808.557+824.374+800.245+816.149+789.925C804.626+775.467+800.899+755.945+790.002+741.009C782.032+730.084+772.133+719.92+760.299+713.375C750.181+707.779+737.993+706.235+726.436+705.853C710.918+705.341+695.55+712.372+680.111+710.727C672.134+709.876+663.523+700.292+664.582+692.34C646.289+691.614+627.84+692.664+609.705+690.164C589.575+687.389+568.127+673.685+553.338+660.543C547.689+655.523+531.813+652.854+529.895+645.545C524.609+625.394+525.588+604.102+523.434+583.381ZM393.312+793.438C390.743+801.558+388.326+808.566+381.812+814.281C386.576+807.777+390.618+801.073+393.312+793.438Z" fill="#000000" stroke-linecap="butt" opacity="1" stroke-linejoin="miter"/>
</g>
</svg>
